# xmcd
#
# Track frame offsets:
#	150
#	16167
#	30555
#	46425
#	62698
#	75028
#	92106
#	105647
#	120436
#	132042
#	144300
#	159665
#
# Disc length: 2316 seconds
#
# Revision: 1
# Processed by: cddbd v1.5.2PL0 Copyright (c) Steve Scherf et al.
# Submitted via: audiograbber 1.83.01
#
DISCID=87090a0c
DTITLE=Ashley Cook - Cattle Dust and Leather
DYEAR=2005
DGENRE=Country
TTITLE0=Paddy
TTITLE1=Calling It A Day
TTITLE2=Stringybark and Greenhide
TTITLE3=A Ringer In The Making
TTITLE4=The Last Of Her Line
TTITLE5=Cattle Dust and Leather
TTITLE6=Ride Ringer Ride
TTITLE7=The Chestnut, The Old Man and Heeler
TTITLE8=Lead Me Down To The Stockyard
TTITLE9=Blue Queensland Dogs
TTITLE10=When The Saddle Was His Throne
TTITLE11=Life On The Black Soil Plains
EXTD=
EXTT0=
EXTT1=
EXTT2=
EXTT3=
EXTT4=
EXTT5=
EXTT6=
EXTT7=
EXTT8=
EXTT9=
EXTT10=
EXTT11=
PLAYORDER=
